<?xml version="1.0" encoding="UTF-8" standalone="no"?>
<!DOCTYPE svg PUBLIC "-//W3C//DTD SVG 1.1//EN" "http://www.w3.org/Graphics/SVG/1.1/DTD/svg11.dtd">
<svg width="100%" height="100%" viewBox="0 0 56 625" version="1.1" xmlns="http://www.w3.org/2000/svg" xmlns:xlink="http://www.w3.org/1999/xlink" xml:space="preserve" xmlns:serif="http://www.serif.com/" style="fill-rule:evenodd;clip-rule:evenodd;stroke-linecap:round;stroke-linejoin:round;stroke-miterlimit:1.5;">
    <g transform="matrix(1,0,0,1,-3199.55,-1278.1)">
        <g transform="matrix(1,0,0,1,1992.32,1162.56)">
            <g transform="matrix(0.977908,-0.977908,0.977908,0.977908,861.564,15.4257)">
                <rect x="112.041" y="242.497" width="27.019" height="27.019" style="fill:white;stroke:white;stroke-width:1.51px;"/>
            </g>
        </g>
        <g transform="matrix(1,0,0,1,1992.32,1162.56)">
            <g transform="matrix(0.977908,-0.977908,0.977908,0.977908,861.564,53.4257)">
                <rect x="112.041" y="242.497" width="27.019" height="27.019" style="fill:rgb(165,165,165);stroke:white;stroke-width:1.51px;"/>
            </g>
        </g>
        <g transform="matrix(1,0,0,1,1992.32,1162.56)">
            <g transform="matrix(0.977908,-0.977908,0.977908,0.977908,861.564,91.4257)">
                <rect x="112.041" y="242.497" width="27.019" height="27.019" style="stroke:white;stroke-width:1.51px;"/>
            </g>
        </g>
        <g transform="matrix(1,0,0,1,1992.32,1162.56)">
            <g transform="matrix(0.977908,-0.977908,0.977908,0.977908,861.564,129.426)">
                <rect x="112.041" y="242.497" width="27.019" height="27.019" style="fill:rgb(100,40,0);stroke:white;stroke-width:1.51px;"/>
            </g>
        </g>
        <g transform="matrix(1,0,0,1,1992.32,1162.56)">
            <g transform="matrix(-0.977908,0.977908,0.977908,0.977908,1107.12,-78.1278)">
                <rect x="112.041" y="242.497" width="27.019" height="27.019" style="fill:rgb(175,0,0);stroke:white;stroke-width:1.51px;"/>
            </g>
        </g>
        <g transform="matrix(1,0,0,1,1992.32,1162.56)">
            <g transform="matrix(-0.977908,0.977908,0.977908,0.977908,1107.12,-40.1278)">
                <rect x="112.041" y="242.497" width="27.019" height="27.019" style="fill:rgb(255,0,0);stroke:white;stroke-width:1.51px;"/>
            </g>
        </g>
        <g transform="matrix(1,0,0,1,1992.32,1162.56)">
            <g transform="matrix(0.977908,-0.977908,0.977908,0.977908,861.564,243.426)">
                <rect x="112.041" y="242.497" width="27.019" height="27.019" style="fill:rgb(255,122,29);stroke:white;stroke-width:1.51px;"/>
            </g>
        </g>
        <g transform="matrix(1,0,0,1,1992.32,1162.56)">
            <g transform="matrix(0.977908,-0.977908,0.977908,0.977908,861.564,281.426)">
                <rect x="112.041" y="242.497" width="27.019" height="27.019" style="fill:rgb(255,222,0);stroke:white;stroke-width:1.51px;"/>
            </g>
        </g>
        <g transform="matrix(1,0,0,1,1992.32,1162.56)">
            <g transform="matrix(-0.977908,0.977908,0.977908,0.977908,1107.12,73.8722)">
                <rect x="112.041" y="242.497" width="27.019" height="27.019" style="fill:rgb(255,190,142);stroke:white;stroke-width:1.51px;"/>
            </g>
        </g>
        <g transform="matrix(1,0,0,1,1992.32,1162.56)">
            <g transform="matrix(0.977908,-0.977908,0.977908,0.977908,861.564,357.426)">
                <rect x="112.041" y="242.497" width="27.019" height="27.019" style="fill:rgb(255,100,230);stroke:white;stroke-width:1.51px;"/>
            </g>
        </g>
        <g transform="matrix(1,0,0,1,1992.32,1162.56)">
            <g transform="matrix(0.977908,-0.977908,0.977908,0.977908,861.954,395.426)">
                <rect x="112.041" y="242.497" width="27.019" height="27.019" style="fill:rgb(150,30,215);stroke:white;stroke-width:1.51px;"/>
            </g>
        </g>
        <g transform="matrix(1,0,0,1,1992.32,1162.56)">
            <g transform="matrix(0.977908,-0.977908,0.977908,0.977908,861.954,433.426)">
                <rect x="112.041" y="242.497" width="27.019" height="27.019" style="fill:rgb(0,0,128);stroke:white;stroke-width:1.51px;"/>
            </g>
        </g>
        <g transform="matrix(1,0,0,1,1992.32,1162.56)">
            <g transform="matrix(0.977908,-0.977908,0.977908,0.977908,861.954,471.426)">
                <rect x="112.041" y="242.497" width="27.019" height="27.019" style="fill:rgb(17,22,255);stroke:white;stroke-width:1.51px;"/>
            </g>
        </g>
        <g transform="matrix(1,0,0,1,1992.32,1162.56)">
            <g transform="matrix(0.977908,-0.977908,0.977908,0.977908,861.954,509.426)">
                <rect x="112.041" y="242.497" width="27.019" height="27.019" style="fill:rgb(79,221,255);stroke:white;stroke-width:1.51px;"/>
            </g>
        </g>
        <g transform="matrix(1,0,0,1,1992.32,1162.56)">
            <g transform="matrix(0.977908,-0.977908,0.977908,0.977908,861.954,547.426)">
                <rect x="112.041" y="242.497" width="27.019" height="27.019" style="fill:rgb(0,235,20);stroke:white;stroke-width:1.51px;"/>
            </g>
        </g>
        <g transform="matrix(1,0,0,1,1992.32,1162.56)">
            <g transform="matrix(0.977908,-0.977908,0.977908,0.977908,861.954,585.426)">
                <rect x="112.041" y="242.497" width="27.019" height="27.019" style="fill:rgb(7,77,0);stroke:white;stroke-width:1.51px;"/>
            </g>
        </g>
    </g>
</svg>
