<?xml version="1.0" encoding="UTF-8" standalone="no"?>
<!DOCTYPE svg PUBLIC "-//W3C//DTD SVG 1.1//EN" "http://www.w3.org/Graphics/SVG/1.1/DTD/svg11.dtd">
<svg width="100%" height="100%" viewBox="0 0 356 97" version="1.1" xmlns="http://www.w3.org/2000/svg" xmlns:xlink="http://www.w3.org/1999/xlink" xml:space="preserve" xmlns:serif="http://www.serif.com/" style="fill-rule:evenodd;clip-rule:evenodd;stroke-linecap:round;stroke-linejoin:round;stroke-miterlimit:1.5;">
    <g transform="matrix(1,0,0,1,-2965.71,-2021.94)">
        <g transform="matrix(1,0,0,1,1992.32,1162.56)">
            <g transform="matrix(-0.977908,-0.977908,0.977908,-0.977908,873.274,1259.97)">
                <rect x="112.041" y="242.497" width="27.019" height="27.019" style="fill:white;stroke:white;stroke-width:1.51px;"/>
            </g>
        </g>
        <g transform="matrix(1,0,0,1,1992.32,1162.56)">
            <g transform="matrix(-0.977908,-0.977908,0.977908,-0.977908,916.226,1259.97)">
                <rect x="112.041" y="242.497" width="27.019" height="27.019" style="fill:rgb(165,165,165);stroke:white;stroke-width:1.51px;"/>
            </g>
        </g>
        <g transform="matrix(1,0,0,1,1992.32,1162.56)">
            <g transform="matrix(-0.977908,-0.977908,0.977908,-0.977908,959.248,1259.97)">
                <rect x="112.041" y="242.497" width="27.019" height="27.019" style="stroke:white;stroke-width:1.51px;"/>
            </g>
        </g>
        <g transform="matrix(1,0,0,1,1992.32,1162.56)">
            <g transform="matrix(-0.977908,-0.977908,0.977908,-0.977908,1002.23,1259.97)">
                <rect x="112.041" y="242.497" width="27.019" height="27.019" style="fill:rgb(100,40,0);stroke:white;stroke-width:1.51px;"/>
            </g>
        </g>
        <g transform="matrix(1,0,0,1,1992.32,1162.56)">
            <g transform="matrix(0.977908,0.977908,0.977908,-0.977908,799.672,1014.42)">
                <rect x="112.041" y="242.497" width="27.019" height="27.019" style="fill:rgb(175,0,0);stroke:white;stroke-width:1.51px;"/>
            </g>
        </g>
        <g transform="matrix(1,0,0,1,1992.32,1162.56)">
            <g transform="matrix(0.977908,0.977908,0.977908,-0.977908,842.672,1014.42)">
                <rect x="112.041" y="242.497" width="27.019" height="27.019" style="fill:rgb(255,0,0);stroke:white;stroke-width:1.51px;"/>
            </g>
        </g>
        <g transform="matrix(1,0,0,1,1992.32,1162.56)">
            <g transform="matrix(-0.977908,-0.977908,0.977908,-0.977908,1131.23,1259.97)">
                <rect x="112.041" y="242.497" width="27.019" height="27.019" style="fill:rgb(255,122,29);stroke:white;stroke-width:1.51px;"/>
            </g>
        </g>
        <g transform="matrix(1,0,0,1,1992.32,1162.56)">
            <g transform="matrix(-0.977908,-0.977908,0.977908,-0.977908,1174.23,1259.97)">
                <rect x="112.041" y="242.497" width="27.019" height="27.019" style="fill:rgb(255,222,0);stroke:white;stroke-width:1.51px;"/>
            </g>
        </g>
        <g transform="matrix(1,0,0,1,1992.32,1162.56)">
            <g transform="matrix(0.977908,-0.977908,-0.977908,-0.977908,1128.42,1301.81)">
                <rect x="112.041" y="242.497" width="27.019" height="27.019" style="fill:rgb(7,77,0);stroke:white;stroke-width:1.51px;"/>
            </g>
        </g>
        <g transform="matrix(1,0,0,1,1992.32,1162.56)">
            <g transform="matrix(0.977908,-0.977908,-0.977908,-0.977908,1171.51,1301.81)">
                <rect x="112.041" y="242.497" width="27.019" height="27.019" style="fill:rgb(0,235,20);stroke:white;stroke-width:1.51px;"/>
            </g>
        </g>
        <g transform="matrix(1,0,0,1,1992.32,1162.56)">
            <g transform="matrix(0.977908,-0.977908,-0.977908,-0.977908,1214.62,1301.81)">
                <rect x="112.041" y="242.497" width="27.019" height="27.019" style="fill:rgb(79,221,255);stroke:white;stroke-width:1.51px;"/>
            </g>
        </g>
        <g transform="matrix(1,0,0,1,1992.32,1162.56)">
            <g transform="matrix(0.977908,-0.977908,-0.977908,-0.977908,1257.42,1301.81)">
                <rect x="112.041" y="242.497" width="27.019" height="27.019" style="fill:rgb(17,22,255);stroke:white;stroke-width:1.51px;"/>
            </g>
        </g>
        <g transform="matrix(1,0,0,1,1992.32,1162.56)">
            <g transform="matrix(0.977908,-0.977908,-0.977908,-0.977908,1300.29,1301.81)">
                <rect x="112.041" y="242.497" width="27.019" height="27.019" style="fill:rgb(0,0,128);stroke:white;stroke-width:1.51px;"/>
            </g>
        </g>
        <g transform="matrix(1,0,0,1,1992.32,1162.56)">
            <g transform="matrix(0.977908,-0.977908,-0.977908,-0.977908,1343.63,1301.81)">
                <rect x="112.041" y="242.497" width="27.019" height="27.019" style="fill:rgb(150,30,215);stroke:white;stroke-width:1.51px;"/>
            </g>
        </g>
        <g transform="matrix(1,0,0,1,1992.32,1162.56)">
            <g transform="matrix(0.977908,-0.977908,-0.977908,-0.977908,1385.9,1301.81)">
                <rect x="112.041" y="242.497" width="27.019" height="27.019" style="fill:rgb(255,100,230);stroke:white;stroke-width:1.51px;"/>
            </g>
        </g>
        <g transform="matrix(1,0,0,1,1992.32,1162.56)">
            <g transform="matrix(-0.977908,0.977908,-0.977908,-0.977908,1674.93,1056.26)">
                <rect x="112.041" y="242.497" width="27.019" height="27.019" style="fill:rgb(255,190,142);stroke:white;stroke-width:1.51px;"/>
            </g>
        </g>
    </g>
</svg>
