<?xml version="1.0" encoding="UTF-8" standalone="no"?>
<!DOCTYPE svg PUBLIC "-//W3C//DTD SVG 1.1//EN" "http://www.w3.org/Graphics/SVG/1.1/DTD/svg11.dtd">
<svg width="100%" height="100%" viewBox="0 0 56 650" version="1.1" xmlns="http://www.w3.org/2000/svg" xmlns:xlink="http://www.w3.org/1999/xlink" xml:space="preserve" xmlns:serif="http://www.serif.com/" style="fill-rule:evenodd;clip-rule:evenodd;stroke-linecap:round;stroke-linejoin:round;stroke-miterlimit:1.5;">
    <g transform="matrix(1,0,0,1,-2881.78,-1280.78)">
        <g transform="matrix(1,0,0,1,1992.32,1162.56)">
            <g transform="matrix(0.977908,-0.977908,0.977908,0.977908,543.794,18.1052)">
                <rect x="112.041" y="242.497" width="27.019" height="27.019" style="fill:white;stroke:white;stroke-width:1.51px;"/>
            </g>
        </g>
        <g transform="matrix(1,0,0,1,1992.32,1162.56)">
            <g transform="matrix(0.977908,-0.977908,0.977908,0.977908,543.794,57.7385)">
                <rect x="112.041" y="242.497" width="27.019" height="27.019" style="fill:rgb(165,165,165);stroke:white;stroke-width:1.51px;"/>
            </g>
        </g>
        <g transform="matrix(1,0,0,1,1992.32,1162.56)">
            <g transform="matrix(0.977908,-0.977908,0.977908,0.977908,543.794,97.3718)">
                <rect x="112.041" y="242.497" width="27.019" height="27.019" style="stroke:white;stroke-width:1.51px;"/>
            </g>
        </g>
        <g transform="matrix(1,0,0,1,1992.32,1162.56)">
            <g transform="matrix(0.977908,-0.977908,0.977908,0.977908,543.794,137.005)">
                <rect x="112.041" y="242.497" width="27.019" height="27.019" style="fill:rgb(131,50,0);stroke:white;stroke-width:1.51px;"/>
            </g>
        </g>
        <g transform="matrix(1,0,0,1,1992.32,1162.56)">
            <g transform="matrix(-0.977908,-0.977908,-0.977908,0.977908,1290.05,176.651)">
                <rect x="112.041" y="242.497" width="27.019" height="27.019" style="fill:rgb(255,190,142);stroke:white;stroke-width:1.51px;"/>
            </g>
        </g>
        <g transform="matrix(1,0,0,1,1992.32,1162.56)">
            <g transform="matrix(0.977908,-0.977908,0.977908,0.977908,543.794,216.284)">
                <rect x="112.041" y="242.497" width="27.019" height="27.019" style="fill:rgb(255,222,0);stroke:white;stroke-width:1.51px;"/>
            </g>
        </g>
        <g transform="matrix(1,0,0,1,1992.32,1162.56)">
            <g transform="matrix(0.977908,-0.977908,0.977908,0.977908,543.794,255.918)">
                <rect x="112.041" y="242.497" width="27.019" height="27.019" style="fill:rgb(255,122,29);stroke:white;stroke-width:1.51px;"/>
            </g>
        </g>
        <g transform="matrix(1,0,0,1,1992.32,1162.56)">
            <g transform="matrix(-0.977908,-0.977908,-0.977908,0.977908,1290.05,295.551)">
                <rect x="112.041" y="242.497" width="27.019" height="27.019" style="fill:rgb(230,0,0);stroke:white;stroke-width:1.51px;"/>
            </g>
        </g>
        <g transform="matrix(1,0,0,1,1992.32,1162.56)">
            <g transform="matrix(-0.977908,-0.977908,-0.977908,0.977908,1290.05,335.184)">
                <rect x="112.041" y="242.497" width="27.019" height="27.019" style="fill:rgb(131,0,0);stroke:white;stroke-width:1.51px;"/>
            </g>
        </g>
        <g transform="matrix(1,0,0,1,1992.32,1162.56)">
            <g transform="matrix(0.977908,-0.977908,0.977908,0.977908,544.185,374.607)">
                <rect x="112.041" y="242.497" width="27.019" height="27.019" style="fill:rgb(255,100,230);stroke:white;stroke-width:1.51px;"/>
            </g>
        </g>
        <g transform="matrix(1,0,0,1,1992.32,1162.56)">
            <g transform="matrix(0.977908,-0.977908,0.977908,0.977908,544.185,414.241)">
                <rect x="112.041" y="242.497" width="27.019" height="27.019" style="fill:rgb(135,57,216);stroke:white;stroke-width:1.51px;"/>
            </g>
        </g>
        <g transform="matrix(1,0,0,1,1992.32,1162.56)">
            <g transform="matrix(0.977908,-0.977908,0.977908,0.977908,544.185,453.874)">
                <rect x="112.041" y="242.497" width="27.019" height="27.019" style="fill:rgb(0,0,128);stroke:white;stroke-width:1.51px;"/>
            </g>
        </g>
        <g transform="matrix(1,0,0,1,1992.32,1162.56)">
            <g transform="matrix(0.977908,-0.977908,0.977908,0.977908,544.185,493.507)">
                <rect x="112.041" y="242.497" width="27.019" height="27.019" style="fill:rgb(17,22,255);stroke:white;stroke-width:1.51px;"/>
            </g>
        </g>
        <g transform="matrix(1,0,0,1,1992.32,1162.56)">
            <g transform="matrix(0.977908,-0.977908,0.977908,0.977908,544.185,533.141)">
                <rect x="112.041" y="242.497" width="27.019" height="27.019" style="fill:rgb(79,221,255);stroke:white;stroke-width:1.51px;"/>
            </g>
        </g>
        <g transform="matrix(1,0,0,1,1992.32,1162.56)">
            <g transform="matrix(0.977908,-0.977908,0.977908,0.977908,544.185,572.774)">
                <rect x="112.041" y="242.497" width="27.019" height="27.019" style="fill:rgb(0,235,20);stroke:white;stroke-width:1.51px;"/>
            </g>
        </g>
        <g transform="matrix(1,0,0,1,1992.32,1162.56)">
            <g transform="matrix(0.977908,-0.977908,0.977908,0.977908,544.185,612.407)">
                <rect x="112.041" y="242.497" width="27.019" height="27.019" style="fill:rgb(7,77,0);stroke:white;stroke-width:1.51px;"/>
            </g>
        </g>
    </g>
</svg>
